<svg width="48" height="48" viewBox="0 0 48 48" fill="none" xmlns="http://www.w3.org/2000/svg">
<rect width="48" height="48" rx="16" fill="#F6F8FC"/>
<path d="M13 35V15.2C13 14.595 13.2156 14.0769 13.6468 13.6457C14.078 13.2145 14.5957 12.9993 15.2 13H32.8C33.405 13 33.9231 13.2156 34.3543 13.6468C34.7855 14.078 35.0007 14.5957 35 15.2V28.4C35 29.005 34.7844 29.5231 34.3532 29.9543C33.922 30.3855 33.4043 30.6007 32.8 30.6H17.4L13 35Z" fill="#B5BBDB"/>
<circle cx="32" cy="32" r="9" fill="#DF536C" stroke="#F6F8FC" stroke-width="2"/>
<path d="M32.4842 30.87C33.0176 30.97 33.4542 31.2 33.7942 31.56C34.1342 31.92 34.3042 32.3767 34.3042 32.93C34.3042 33.61 34.0709 34.1467 33.6042 34.54C33.1376 34.9333 32.5709 35.13 31.9042 35.13C31.3709 35.13 30.8976 35.01 30.4842 34.77C30.0709 34.5233 29.7776 34.17 29.6042 33.71L30.3842 33.25C30.5909 33.8967 31.0976 34.22 31.9042 34.22C32.3376 34.22 32.6909 34.1067 32.9642 33.88C33.2376 33.6533 33.3742 33.3367 33.3742 32.93C33.3742 32.5233 33.2376 32.2067 32.9642 31.98C32.6909 31.7467 32.3376 31.63 31.9042 31.63H31.6642L31.2942 31.06L32.9142 28.87H29.8042V28H34.0042V28.82L32.4842 30.87Z" fill="white"/>
</svg>
