<svg width="24" height="25" viewBox="0 0 24 25" fill="none" xmlns="http://www.w3.org/2000/svg">
<g clip-path="url(#clip0_157_3224)">
<path d="M15.5987 1.88672H11.2718C9.31172 1.88672 7.75832 1.88672 6.54381 2.05117C5.29264 2.22007 4.28038 2.57564 3.48256 3.37679C2.68363 4.17794 2.32917 5.19465 2.16139 6.45026C1.99805 7.67032 1.99805 9.22928 1.99805 11.1972V17.6841C1.99805 19.3598 3.02032 20.7954 4.47261 21.3976C4.39816 20.3865 4.39816 18.9697 4.39816 17.7897V12.2228C4.39816 10.7994 4.39816 9.57152 4.52928 8.58925C4.67039 7.53587 4.98819 6.52694 5.80378 5.70801C6.61937 4.88908 7.62498 4.57018 8.67391 4.42795C9.65174 4.29683 10.874 4.29683 12.293 4.29683H15.7042C17.1221 4.29683 18.3421 4.29683 19.3211 4.42795C19.0277 3.67944 18.5157 3.03665 17.8517 2.58337C17.1877 2.13009 16.4026 1.88732 15.5987 1.88672Z" fill="#7EA373"/>
<path d="M6 12.3282C6 9.29917 6 7.78465 6.93782 6.8435C7.87453 5.90234 9.38238 5.90234 12.4003 5.90234H15.6004C18.6173 5.90234 20.1262 5.90234 21.064 6.8435C22.0007 7.78465 22.0007 9.29917 22.0007 12.3282V17.684C22.0007 20.713 22.0007 22.2275 21.064 23.1687C20.1262 24.1099 18.6173 24.1099 15.6004 24.1099H12.4003C9.38349 24.1099 7.87453 24.1099 6.93782 23.1687C6 22.2275 6 20.713 6 17.684V12.3282Z" fill="#7EA373"/>
</g>
<defs>
<clipPath id="clip0_157_3224">
<rect width="24" height="24" fill="white" transform="translate(0 0.998535)"/>
</clipPath>
</defs>
</svg>
