<svg width="24" height="24" viewBox="0 0 24 24" fill="none" xmlns="http://www.w3.org/2000/svg">
<path d="M12 22.9998C18.05 22.9998 23 18.0498 23 11.9998C23 5.94976 18.05 0.999756 12 0.999756C5.95 0.999756 1 5.94976 1 11.9998C1 18.0498 5.95 22.9998 12 22.9998ZM12.33 6.81876C12.55 6.62076 12.814 6.49976 13.1 6.49976C13.397 6.49976 13.65 6.62076 13.881 6.81876C14.09 7.04976 14.2 7.31376 14.2 7.59976C14.2 7.89676 14.09 8.14976 13.881 8.38076C13.65 8.58976 13.397 8.69976 13.1 8.69976C12.814 8.69976 12.55 8.58976 12.33 8.38076C12.121 8.14976 12 7.89676 12 7.59976C12 7.31376 12.121 7.04976 12.33 6.81876ZM9.58 11.9668C9.58 11.9668 11.967 10.0748 12.836 9.99776C13.65 9.93176 13.485 10.8668 13.408 11.3508L13.397 11.4168C13.243 11.9998 13.056 12.7038 12.869 13.3748C12.451 14.9038 12.044 16.3998 12.143 16.6748C12.253 17.0488 12.935 16.5758 13.43 16.2458C13.496 16.2018 13.551 16.1578 13.606 16.1248C13.606 16.1248 13.694 16.0368 13.782 16.1578C13.804 16.1908 13.826 16.2238 13.848 16.2458C13.947 16.3998 14.002 16.4548 13.87 16.5428L13.826 16.5648C13.584 16.7298 12.55 17.4558 12.132 17.7198C11.681 18.0168 9.954 19.0068 10.218 17.0818C10.449 15.7288 10.757 14.5628 10.999 13.6498C11.45 11.9998 11.648 11.2518 10.636 11.9008C10.229 12.1428 9.987 12.2968 9.844 12.3958C9.723 12.4838 9.712 12.4838 9.635 12.3408L9.602 12.2748L9.547 12.1868C9.47 12.0768 9.47 12.0658 9.58 11.9668Z" fill="#DDE0F0"/>
</svg>
