<svg width="12" height="12" viewBox="0 0 12 12" fill="none" xmlns="http://www.w3.org/2000/svg">
<g clip-path="url(#clip0_16_56)">
<path d="M2.17595 0.750548L2.17595 11.2504C2.17595 11.4536 2.28062 11.6294 2.49012 11.7778C2.69956 11.9261 2.94758 12.0005 3.23423 12.0005C3.52088 12.0005 3.76878 11.9261 3.97851 11.7778L11.387 6.52782C11.5962 6.37949 11.7012 6.20377 11.7012 6.00052C11.7012 5.79726 11.5962 5.62155 11.387 5.47309L3.97851 0.223117C3.76901 0.0746566 3.52088 0.000487924 3.23423 0.000487911C2.94764 0.000487899 2.69956 0.0746566 2.49012 0.223117C2.28062 0.371742 2.17595 0.547456 2.17595 0.750548Z" fill="#B5BBDB"/>
</g>
<defs>
<clipPath id="clip0_16_56">
<rect width="12" height="12" fill="white" transform="translate(12 0.000488281) rotate(90)"/>
</clipPath>
</defs>
</svg>
