<svg width="24" height="24" viewBox="0 0 24 24" fill="none" xmlns="http://www.w3.org/2000/svg">
<path d="M16.5547 1H7.44531C3.8875 1 1 3.8875 1 7.44531V16.5547C1 20.1125 3.8875 23 7.44531 23H16.5547C20.1125 23 23 20.1125 23 16.5547V7.44531C23 3.8875 20.1125 1 16.5547 1ZM14.2941 12.4559L11.725 15.025C11.3189 15.4311 10.6246 15.1436 10.6246 14.5691V13.375H7.1441C6.78832 13.375 6.49957 13.0862 6.49957 12.7305V11.2695C6.49957 10.9138 6.78832 10.625 7.1441 10.625H10.6246V9.4309C10.6246 8.85684 11.3189 8.56895 11.725 8.975L14.2941 11.5441C14.5459 11.7959 14.5459 12.2041 14.2941 12.4555V12.4559ZM17.5 15.4805C17.5 15.8362 17.2112 16.125 16.8555 16.125H16.082C15.7263 16.125 15.4375 15.8362 15.4375 15.4805V8.51953C15.4375 8.16375 15.7263 7.875 16.082 7.875H16.8555C17.2112 7.875 17.5 8.16375 17.5 8.51953V15.4805Z" fill="#B5BBDB"/>
</svg>
