<svg width="24" height="24" viewBox="0 0 24 24" fill="none" xmlns="http://www.w3.org/2000/svg">
<path d="M7.45455 12.9091V21.0909C7.45455 21.332 7.35877 21.5632 7.18828 21.7337C7.01779 21.9042 6.78656 22 6.54545 22H2.90909C2.66799 22 2.43675 21.9042 2.26627 21.7337C2.09578 21.5632 2 21.332 2 21.0909V12.9091C2 12.668 2.09578 12.4368 2.26627 12.2663C2.43675 12.0958 2.66799 12 2.90909 12H6.54545C6.78656 12 7.01779 12.0958 7.18828 12.2663C7.35877 12.4368 7.45455 12.668 7.45455 12.9091ZM13.8182 2H10.1818C9.94071 2 9.70948 2.09578 9.53899 2.26627C9.36851 2.43675 9.27273 2.66799 9.27273 2.90909V21.0909C9.27273 21.332 9.36851 21.5632 9.53899 21.7337C9.70948 21.9042 9.94071 22 10.1818 22H13.8182C14.0593 22 14.2905 21.9042 14.461 21.7337C14.6315 21.5632 14.7273 21.332 14.7273 21.0909V2.90909C14.7273 2.66799 14.6315 2.43675 14.461 2.26627C14.2905 2.09578 14.0593 2 13.8182 2ZM21.0909 6.54545H17.4545C17.2134 6.54545 16.9822 6.64123 16.8117 6.81172C16.6412 6.98221 16.5455 7.21344 16.5455 7.45455V21.0909C16.5455 21.332 16.6412 21.5632 16.8117 21.7337C16.9822 21.9042 17.2134 22 17.4545 22H21.0909C21.332 22 21.5632 21.9042 21.7337 21.7337C21.9042 21.5632 22 21.332 22 21.0909V7.45455C22 7.21344 21.9042 6.98221 21.7337 6.81172C21.5632 6.64123 21.332 6.54545 21.0909 6.54545Z" fill="#B5BBDB"/>
</svg>
