<svg width="48" height="48" viewBox="0 0 48 48" fill="none" xmlns="http://www.w3.org/2000/svg">
<rect width="48" height="48" rx="16" fill="#F6F8FC"/>
<g clip-path="url(#clip0_16_11)">
<path d="M21.2767 30.5551C22.0186 31.2958 21.5325 32.5651 20.4863 32.6233C19.8051 32.6616 19.1236 32.5555 18.4864 32.3119C17.8491 32.0683 17.2706 31.6927 16.7887 31.2097C16.3062 30.7279 15.9309 30.1495 15.6875 29.5125C15.4441 28.8754 15.3381 28.1942 15.3764 27.5133C15.4322 26.5119 16.5948 26.0245 17.3452 26.6331L17.4446 26.7229L21.2767 30.5551ZM33.9345 14.0648C35.0983 15.2286 35.3092 16.9865 34.5649 18.365L34.4558 18.5505L34.4267 18.5941C34.8386 20.0723 34.8945 21.627 34.5898 23.131C34.2851 24.6349 33.6284 26.0453 32.6737 27.2466L32.4518 27.5169L32.2202 27.7812L29.7071 30.2932L29.6101 30.429C29.0958 31.1774 28.88 32.0912 29.0052 32.9907L29.0476 33.2343L29.1022 33.4586C29.4222 34.6128 28.0681 35.4529 27.1807 34.7328L27.0764 34.6382L13.3615 20.923C12.4802 20.0416 13.3409 18.565 14.5411 18.8972C15.0527 19.039 15.5891 19.0672 16.1126 18.9796C16.6362 18.8921 17.1343 18.691 17.5719 18.3904L17.7125 18.2862L20.2596 15.7403C21.4316 14.6733 22.8473 13.9099 24.3827 13.5168C25.9181 13.1237 27.5265 13.1129 29.067 13.4853L29.404 13.5714L29.4489 13.5435C30.0829 13.1518 30.8218 12.9641 31.5658 13.0057C32.3099 13.0473 33.0232 13.3163 33.6096 13.7763L33.7793 13.9181L33.9345 14.0648Z" fill="#B5BBDB"/>
</g>
<circle cx="32" cy="32" r="9" fill="#DF536C" stroke="#F6F8FC" stroke-width="2"/>
<path d="M29.5611 28H30.3611V35H29.4411V29L27.9511 29.44L27.7211 28.64L29.5611 28ZM31.5055 35V34.24L33.9755 31.72C34.6355 31.06 34.9655 30.4933 34.9655 30.02C34.9655 29.6267 34.8455 29.32 34.6055 29.1C34.3655 28.88 34.0722 28.77 33.7255 28.77C33.0655 28.77 32.5855 29.0833 32.2855 29.71L31.5055 29.25C31.7255 28.7967 32.0288 28.4533 32.4155 28.22C32.8088 27.9867 33.2422 27.87 33.7155 27.87C34.3022 27.87 34.8122 28.0633 35.2455 28.45C35.6788 28.8367 35.8955 29.3567 35.8955 30.01C35.8955 30.7167 35.4788 31.4867 34.6455 32.32L32.8555 34.1H36.0255V35H31.5055Z" fill="white"/>
<defs>
<clipPath id="clip0_16_11">
<rect width="24" height="24" fill="white" transform="translate(12 12)"/>
</clipPath>
</defs>
</svg>
