<svg width="24" height="24" viewBox="0 0 24 24" fill="none" xmlns="http://www.w3.org/2000/svg">
<path d="M12 1C18.0753 1 23 5.9247 23 12C23 18.0753 18.0753 23 12 23C5.9247 23 1 18.0753 1 12C1 5.9247 5.9247 1 12 1ZM13.65 5.4H9.8C9.53057 5.40004 9.27053 5.49895 9.06919 5.67799C8.86785 5.85702 8.73922 6.10372 8.7077 6.3713L8.7 6.5V10.9H8.15C7.86963 10.9003 7.59996 11.0077 7.39609 11.2001C7.19223 11.3926 7.06954 11.6556 7.05311 11.9355C7.03668 12.2154 7.12774 12.491 7.30769 12.706C7.48764 12.921 7.7429 13.0592 8.0213 13.0923L8.15 13.1H8.7V14.2H8.15C7.86963 14.2003 7.59996 14.3077 7.39609 14.5001C7.19223 14.6926 7.06954 14.9556 7.05311 15.2355C7.03668 15.5154 7.12774 15.791 7.30769 16.006C7.48764 16.221 7.7429 16.3592 8.0213 16.3923L8.15 16.4H8.7V17.5C8.70031 17.7804 8.80767 18.05 9.00013 18.2539C9.1926 18.4578 9.45565 18.5805 9.73553 18.5969C10.0154 18.6133 10.291 18.5223 10.506 18.3423C10.721 18.1624 10.8592 17.9071 10.8923 17.6287L10.9 17.5V16.4H13.1C13.3804 16.3997 13.65 16.2923 13.8539 16.0999C14.0578 15.9074 14.1805 15.6444 14.1969 15.3645C14.2133 15.0846 14.1223 14.809 13.9423 14.594C13.7624 14.379 13.5071 14.2408 13.2287 14.2077L13.1 14.2H10.9V13.1H13.65C14.6538 13.1014 15.6184 12.7108 16.3383 12.0114C17.0583 11.312 17.4766 10.359 17.5041 9.35564C17.5316 8.35226 17.1662 7.37781 16.4858 6.63993C15.8053 5.90206 14.8635 5.45911 13.8612 5.4055L13.65 5.4ZM13.65 7.6C14.0737 7.60021 14.4812 7.76343 14.7878 8.05585C15.0945 8.34827 15.2769 8.74746 15.2973 9.17071C15.3176 9.59396 15.1744 10.0088 14.8972 10.3293C14.62 10.6498 14.2302 10.8514 13.8084 10.8923L13.65 10.9H10.9V7.6H13.65Z" fill="#B5BBDB"/>
</svg>
