<svg width="60" height="60" viewBox="0 0 60 60" fill="none" xmlns="http://www.w3.org/2000/svg">
<circle cx="30" cy="30" r="30" fill="#F6F8FC"/>
<path d="M42.7585 36.4589C42.7585 36.3562 42.655 36.3562 42.655 36.2534C42.2413 35.4315 41.3102 34.4041 40.0689 33.274C39.4482 32.7603 39.1378 32.3493 38.9309 32.1438C38.6206 31.7329 38.6206 31.4247 38.724 31.0137C38.8275 30.7055 39.2413 30.1918 39.9654 29.2671C40.3792 28.7534 40.5861 28.4452 40.8964 28.137C42.4481 26.0822 43.1723 24.7466 42.9654 24.1301L42.862 24.0274C42.7585 23.9247 42.655 23.8219 42.4481 23.8219C42.2412 23.7192 41.9309 23.7192 41.6206 23.8219H37.6896C37.5861 23.8219 37.5861 23.8219 37.3792 23.8219C37.2758 23.8219 37.1723 23.8219 37.1723 23.8219H37.0689H36.9654L36.862 23.9247C36.7585 24.0274 36.7585 24.0274 36.7585 24.1301C36.3447 25.2603 35.8275 26.1849 35.3102 27.2123C34.9999 27.726 34.6896 28.2397 34.3792 28.6507C34.0689 29.0616 33.862 29.3699 33.6551 29.5753C33.4482 29.7808 33.2413 29.8836 33.1378 30.089C33.0344 30.1918 32.8275 30.2945 32.8275 30.1918C32.7241 30.1918 32.6206 30.1918 32.6206 30.089C32.5172 29.9863 32.4137 29.8836 32.3103 29.7808C32.2068 29.6781 32.2068 29.4726 32.1034 29.2671C32.1034 29.0616 32.1034 28.8562 32.1034 28.7534C32.1034 28.6507 32.1034 28.3425 32.1034 28.137C32.1034 27.8288 32.1034 27.6233 32.1034 27.5205C32.1034 27.2123 32.1034 26.8014 32.1034 26.3904C32.1034 25.9795 32.1034 25.6712 32.1034 25.4657C32.1034 25.2603 32.1034 24.9521 32.1034 24.7466C32.1034 24.4384 32.1034 24.2329 32.1034 24.1301C32.1034 24.0274 31.9999 23.8219 31.9999 23.7192C31.8965 23.6164 31.793 23.5137 31.6896 23.411C31.5861 23.3082 31.3792 23.3082 31.2758 23.2055C30.7586 23.1027 30.1379 23 29.4137 23C27.7586 23 26.6207 23.1027 26.2069 23.3082C26 23.411 25.7931 23.5137 25.6896 23.7192C25.4827 23.9247 25.4827 24.0274 25.5862 24.0274C26.1034 24.1301 26.5172 24.3356 26.7241 24.6438L26.8276 24.8493C26.931 24.9521 26.931 25.1575 27.0344 25.4657C27.1379 25.774 27.1379 26.0822 27.1379 26.4931C27.1379 27.1096 27.1379 27.726 27.1379 28.137C27.1379 28.6507 27.0344 28.9589 27.0344 29.2671C27.0344 29.5753 26.931 29.7808 26.8276 29.8836C26.7241 30.089 26.7241 30.1918 26.6206 30.1918C26.6206 30.1918 26.6206 30.2945 26.5172 30.2945C26.4137 30.2945 26.3103 30.3973 26.1034 30.3973C26 30.3973 25.7931 30.2945 25.6896 30.1918C25.4827 30.089 25.2758 29.8836 25.1724 29.6781C24.9655 29.4726 24.7586 29.1644 24.5517 28.7534C24.3448 28.3425 24.0344 27.9315 23.8275 27.3151L23.6207 26.9041C23.5172 26.6986 23.3103 26.2877 23.1034 25.774C22.8965 25.2603 22.6896 24.8493 22.4827 24.3356C22.3793 24.1301 22.2759 24.0274 22.1724 23.9247H22.0689C22.0689 23.9247 21.9655 23.8219 21.862 23.8219C21.7586 23.8219 21.6552 23.7192 21.5517 23.7192H17.8276C17.4138 23.7192 17.2069 23.8219 17.1035 23.9247L17 24.0274C17 24.0274 17 24.1301 17 24.2329C17 24.3356 17 24.4383 17.1035 24.6438C17.6207 25.8767 18.2414 27.1096 18.8621 28.3425C19.4827 29.4726 20.1034 30.5 20.5172 31.2192C21.0345 31.9384 21.4483 32.6575 21.9655 33.274C22.4827 33.8904 22.7931 34.3014 22.8965 34.5069C23.1034 34.7123 23.2069 34.8151 23.3103 34.9178L23.6207 35.226C23.8276 35.4315 24.1379 35.7397 24.5517 36.0479C24.9655 36.3562 25.4827 36.6644 26 36.9726C26.5172 37.2808 27.1379 37.4863 27.7586 37.6918C28.4827 37.8973 29.1034 38 29.7241 37.8973H31.2758C31.5861 37.8973 31.793 37.7945 31.9999 37.589L32.1034 37.4863C32.1034 37.3836 32.2068 37.3836 32.2068 37.2808C32.2068 37.1781 32.2068 37.0754 32.2068 36.8699C32.2068 36.4589 32.2068 36.1507 32.3103 35.8425C32.4137 35.5343 32.4137 35.3288 32.5172 35.1233C32.6206 34.9178 32.7241 34.8151 32.8275 34.7123C32.931 34.6096 33.0344 34.5069 33.0344 34.5069H33.1378C33.3447 34.4041 33.6551 34.5069 33.862 34.7123C34.1723 34.9178 34.4827 35.226 34.6896 35.5343C34.8965 35.8425 35.2068 36.1507 35.6206 36.5616C36.0344 36.9726 36.3447 37.2808 36.5516 37.3836L36.862 37.589C37.0689 37.6918 37.2758 37.7945 37.5861 37.8973C37.8965 38 38.1033 38 38.3102 38L41.8275 37.8973C42.1378 37.8973 42.4481 37.7945 42.655 37.6918C42.8619 37.5891 42.9654 37.4863 42.9654 37.2808C42.9654 37.1781 42.9654 36.9726 42.9654 36.8699C42.7585 36.6644 42.7585 36.5616 42.7585 36.4589Z" fill="#7EA373"/>
</svg>
