<svg width="65" height="34" viewBox="0 0 65 34" fill="none" xmlns="http://www.w3.org/2000/svg">
<g clip-path="url(#clip0_26_1303)">
<path d="M17.8864 1.23291H14.3398V6.44538H17.8864V1.23291Z" stroke="#1B2E3F" stroke-width="0.417171" stroke-miterlimit="10"/>
<path d="M14.3395 1.23291H10.793V6.44538H14.3395V1.23291Z" stroke="#1B2E3F" stroke-width="0.417171" stroke-miterlimit="10"/>
<path d="M10.7926 1.23291H7.24609V6.44538H10.7926V1.23291Z" stroke="#1B2E3F" stroke-width="0.417171" stroke-miterlimit="10"/>
<path d="M7.24967 1.23291H3.70312V6.44538H7.24967V1.23291Z" stroke="#1B2E3F" stroke-width="0.417171" stroke-miterlimit="10"/>
<path d="M3.70279 1.23291H0.15625V6.44538H3.70279V1.23291Z" stroke="#1B2E3F" stroke-width="0.417171" stroke-miterlimit="10"/>
<path d="M62.5846 10.8389H34.291V30.5733H62.5846V10.8389Z" fill="#E7D8C9"/>
<path d="M34.2427 10.8389H12.6895V30.5733H34.2427V10.8389Z" fill="#B2967D"/>
<path d="M64.9586 7H18V10.4266H64.9586V7Z" fill="#E6BEAE"/>
<path d="M20.1426 10.8604V30.5732H23.6356V10.8604H20.1426Z" fill="#E6BEAE"/>
<path d="M16.6523 10.8604V30.5732H20.1453V10.8604H16.6523Z" fill="#E7D8C9"/>
<path d="M50.752 2.46584V7.39404H54.245V2.46584H50.752Z" fill="#E6BEAE"/>
<path d="M43.7656 2.46242V7.39062H50.7485V2.46242H43.7656Z" fill="#E7D8C9"/>
<path d="M23.7266 14.3893V16.855H30.7094V14.3893H23.7266Z" fill="#1B2E3F"/>
<path d="M50.752 -0.00324512V2.4624H54.245V-0.00324512H50.752Z" fill="#B2967D"/>
<path d="M43.7676 -0.00324512V2.4624L50.7504 2.4624V-0.00324512L43.7676 -0.00324512Z" fill="#1B2E3F"/>
<path d="M5.9082 10.8604L5.9082 30.5732H9.4012L9.4012 10.8604H5.9082Z" fill="#E6BEAE"/>
<path d="M37.8711 14.392V30.5732H44.8539V14.392H37.8711Z" fill="#1B2E3F"/>
<path d="M23.7266 17.1667V30.5732H30.7094V17.1667H23.7266Z" fill="#1B2E3F"/>
<path d="M62.5833 30.5732H20.1445V33.9998H62.5833V30.5732Z" fill="#E7D8C9"/>
<path d="M17.8846 7.41211H0.158203V10.8387H17.8846V7.41211Z" fill="#E7D8C9"/>
<path d="M2.41602 10.8575L2.41602 30.5703H5.90901L5.90901 10.8575H2.41602Z" fill="#E7D8C9"/>
<path d="M20.1424 30.5732H2.41602V33.9998H20.1424V30.5732Z" fill="#B2967D"/>
<path d="M64.8435 1.23291H55.4512V6.44538H64.8435V1.23291Z" stroke="#B2967D" stroke-width="0.417171" stroke-miterlimit="10"/>
<path d="M55.4509 1.23291H46.0586V6.44538H55.4509V1.23291Z" stroke="#B2967D" stroke-width="0.417171" stroke-miterlimit="10"/>
<path d="M46.0623 1.23291H36.6699V6.44538H46.0623V1.23291Z" stroke="#B2967D" stroke-width="0.417171" stroke-miterlimit="10"/>
<path d="M36.6697 1.23291H27.2773V6.44538H36.6697V1.23291Z" stroke="#B2967D" stroke-width="0.417171" stroke-miterlimit="10"/>
<path d="M27.2771 1.23291H17.8848V6.44538H27.2771V1.23291Z" stroke="#B2967D" stroke-width="0.417171" stroke-miterlimit="10"/>
</g>
<defs>
<clipPath id="clip0_26_1303">
<rect width="65" height="34" fill="white"/>
</clipPath>
</defs>
</svg>
