<?xml version="1.0" encoding="utf-8"?><svg viewBox="0 0 800 800" xmlns="http://www.w3.org/2000/svg" xmlns:xlink="http://www.w3.org/1999/xlink"><style>:root>svg{display:none}:root>svg:target{display:block}</style><svg viewBox="0 0 12 12" id="arrow" xmlns="http://www.w3.org/2000/svg"><g clip-path="url(#aa)"><path d="M2.176.75v10.5c0 .204.105.38.314.528.21.148.458.223.744.223.287 0 .535-.075.745-.223l7.408-5.25c.21-.149.314-.324.314-.527 0-.204-.105-.38-.314-.528L3.979.223A1.254 1.254 0 003.234 0C2.948 0 2.7.075 2.49.223c-.21.149-.314.324-.314.528z"/></g><defs><clipPath id="aa"><path transform="rotate(90 6 6)" d="M0 0h12v12H0z"/></clipPath></defs></svg><svg viewBox="0 0 24 24" id="balance" xmlns="http://www.w3.org/2000/svg"><path d="M21.895 18.667v1.11c0 .59-.233 1.155-.648 1.572a2.203 2.203 0 01-1.563.651H4.211a2.204 2.204 0 01-1.564-.65A2.228 2.228 0 012 19.777V4.222c0-.59.233-1.154.647-1.571A2.205 2.205 0 014.211 2h15.473c.586 0 1.149.234 1.563.65.415.418.648.983.648 1.572v1.111h-9.948c-.586 0-1.148.234-1.563.651a2.228 2.228 0 00-.647 1.572v8.888c0 .59.233 1.155.647 1.572.415.417.977.65 1.563.65m0-2.222H23V7.556H11.947m4.421 6.11a1.65 1.65 0 01-1.172-.488 1.671 1.671 0 010-2.357 1.653 1.653 0 012.345 0 1.671 1.671 0 010 2.357 1.654 1.654 0 01-1.173.489z"/></svg><svg viewBox="0 0 48 48" id="chat" xmlns="http://www.w3.org/2000/svg"><rect width="48" height="48" rx="16"/><path d="M13 35V15.2c0-.605.216-1.123.647-1.554A2.114 2.114 0 0115.2 13h17.6a2.12 2.12 0 011.554.647c.431.431.647.949.646 1.553v13.2a2.12 2.12 0 01-.647 1.554 2.114 2.114 0 01-1.553.646H17.4L13 35z"/><circle cx="32" cy="32" r="9"/><path d="M32.484 30.87c.534.1.97.33 1.31.69.34.36.51.817.51 1.37 0 .68-.233 1.217-.7 1.61-.466.393-1.033.59-1.7.59-.533 0-1.006-.12-1.42-.36a2.032 2.032 0 01-.88-1.06l.78-.46c.207.647.714.97 1.52.97.434 0 .787-.113 1.06-.34.274-.227.41-.543.41-.95 0-.407-.136-.723-.41-.95-.273-.233-.626-.35-1.06-.35h-.24l-.37-.57 1.62-2.19h-3.11V28h4.2v.82l-1.52 2.05z"/></svg><svg viewBox="0 0 24 25" id="copy" xmlns="http://www.w3.org/2000/svg"><g clip-path="url(#da)"><path d="M15.599 1.887h-4.327c-1.96 0-3.514 0-4.728.164-1.251.17-2.264.525-3.061 1.326-.8.8-1.154 1.818-1.322 3.073-.163 1.22-.163 2.78-.163 4.747v6.487a4.017 4.017 0 002.475 3.714c-.075-1.011-.075-2.428-.075-3.608v-5.567c0-1.424 0-2.651.131-3.634.141-1.053.46-2.062 1.275-2.881s1.821-1.138 2.87-1.28c.978-.131 2.2-.131 3.619-.131h3.411c1.418 0 2.638 0 3.617.131A4.001 4.001 0 0015.6 1.887z"/><path d="M6 12.328c0-3.029 0-4.543.938-5.484.937-.942 2.444-.942 5.462-.942h3.2c3.017 0 4.526 0 5.464.941.937.942.937 2.456.937 5.485v5.356c0 3.029 0 4.543-.937 5.485-.938.94-2.447.94-5.464.94h-3.2c-3.017 0-4.525 0-5.462-.94C6 22.227 6 20.713 6 17.684v-5.356z"/></g><defs><clipPath id="da"><path transform="translate(0 .999)" d="M0 0h24v24H0z"/></clipPath></defs></svg><svg viewBox="0 0 24 24" id="date" xmlns="http://www.w3.org/2000/svg"><path d="M7 14a1 1 0 112 0 1 1 0 01-2 0zm1 3a1 1 0 100 2 1 1 0 000-2zm3-3a1 1 0 112 0 1 1 0 01-2 0zm1 3a1 1 0 100 2 1 1 0 000-2zm3-3a1 1 0 112 0 1 1 0 01-2 0zm1 3a1 1 0 100 2 1 1 0 000-2z"/><path fill-rule="evenodd" clip-rule="evenodd" d="M6 2a1 1 0 012 0v1h8V2a1 1 0 112 0v1h1a3 3 0 013 3v14a3 3 0 01-3 3H5a3 3 0 01-3-3V6a3 3 0 013-3h1V2zm10 3v1a1 1 0 102 0V5h1a1 1 0 011 1v3H4V6a1 1 0 011-1h1v1a1 1 0 002 0V5h8zM4 11v9a1 1 0 001 1h14a1 1 0 001-1v-9H4z"/></svg><svg viewBox="0 0 32 32" id="facebook" xmlns="http://www.w3.org/2000/svg"><path d="M16-.035C7.159-.035-.035 7.159-.035 16S7.159 32.035 16 32.035 32.035 24.841 32.035 16 24.841-.035 16-.035zm0 31C7.748 30.965 1.035 24.252 1.035 16S7.748 1.035 16 1.035 30.965 7.748 30.965 16 24.252 30.965 16 30.965z"/><path d="M19.5 7h-2.668C13.652 7 13 8.737 13 11.345L13.002 13H11.5a.5.5 0 00-.5.5v3a.5.5 0 00.5.5H13v7.5a.5.5 0 00.5.5h3.058a.5.5 0 00.5-.5l.002-7.5h2.44a.5.5 0 00.5-.5v-3a.5.5 0 00-.5-.5h-2.441l.003-1.396c0-.673 0-.673.629-.674l1.789.07a.502.502 0 00.52-.5v-3a.5.5 0 00-.5-.5zM19 9.98l-1.289-.05c-1.521 0-1.648.827-1.648 1.672l-.004 1.896a.5.5 0 00.499.502H19v2h-2.44a.5.5 0 00-.5.5l-.002 7.5H14v-7.5a.5.5 0 00-.5-.5H12v-2h1.503a.5.5 0 00.5-.501L14 11.344C14 9.079 14.424 8 16.832 8H19v1.98z"/></svg><svg viewBox="0 0 24 24" id="info" xmlns="http://www.w3.org/2000/svg"><path d="M12 23c6.05 0 11-4.95 11-11S18.05 1 12 1 1 5.95 1 12s4.95 11 11 11zm.33-16.181c.22-.198.484-.32.77-.32.297 0 .55.122.781.32.209.23.319.495.319.78 0 .298-.11.55-.319.782a1.127 1.127 0 01-.781.319c-.286 0-.55-.11-.77-.32-.209-.23-.33-.483-.33-.78 0-.286.121-.55.33-.781zm-2.75 5.148s2.387-1.892 3.256-1.97c.814-.065.649.87.572 1.354l-.011.066c-.154.583-.341 1.287-.528 1.958-.418 1.529-.825 3.025-.726 3.3.11.374.792-.1 1.287-.43.066-.043.121-.087.176-.12 0 0 .088-.088.176.033a.61.61 0 00.066.088c.099.154.154.209.022.297l-.044.022c-.242.165-1.276.89-1.694 1.155-.451.297-2.178 1.287-1.914-.638.231-1.353.539-2.52.781-3.432.451-1.65.649-2.398-.363-1.75a15.17 15.17 0 00-.792.496c-.121.088-.132.088-.209-.055l-.033-.066-.055-.088c-.077-.11-.077-.121.033-.22z"/></svg><svg viewBox="0 0 24 24" id="inst" xmlns="http://www.w3.org/2000/svg"><path fill-rule="evenodd" clip-rule="evenodd" d="M12 18a6 6 0 100-12 6 6 0 000 12zm0-2a4 4 0 100-8 4 4 0 000 8z"/><path d="M18 5a1 1 0 100 2 1 1 0 000-2z"/><path fill-rule="evenodd" clip-rule="evenodd" d="M1.654 4.276C1 5.56 1 7.24 1 10.6v2.8c0 3.36 0 5.04.654 6.324a6 6 0 002.622 2.622C5.56 23 7.24 23 10.6 23h2.8c3.36 0 5.04 0 6.324-.654a6 6 0 002.622-2.622C23 18.44 23 16.76 23 13.4v-2.8c0-3.36 0-5.04-.654-6.324a6 6 0 00-2.622-2.622C18.44 1 16.76 1 13.4 1h-2.8c-3.36 0-5.04 0-6.324.654a6 6 0 00-2.622 2.622zM13.4 3h-2.8c-1.713 0-2.878.002-3.778.075-.877.072-1.325.202-1.638.361a4 4 0 00-1.748 1.748c-.16.313-.29.761-.36 1.638C3.001 7.722 3 8.887 3 10.6v2.8c0 1.713.002 2.878.075 3.778.072.877.202 1.325.361 1.638a4 4 0 001.748 1.748c.313.16.761.29 1.638.36.9.074 2.065.076 3.778.076h2.8c1.713 0 2.878-.002 3.778-.075.877-.072 1.325-.202 1.638-.361a4 4 0 001.748-1.748c.16-.313.29-.761.36-1.638.074-.9.076-2.065.076-3.778v-2.8c0-1.713-.002-2.878-.075-3.778-.072-.877-.202-1.325-.361-1.638a4 4 0 00-1.748-1.748c-.313-.16-.761-.29-1.638-.36C16.278 3.001 15.113 3 13.4 3z"/></svg><svg viewBox="0 0 16 16" id="loading" xmlns="http://www.w3.org/2000/svg"><path d="M7.706.29c-.222.072-.35.2-.412.409-.035.117-.041.389-.041 1.809 0 1.881-.002 1.857.19 2.049.257.256.857.256 1.114 0 .192-.192.19-.168.19-2.049 0-1.82-.003-1.852-.151-2.028C8.472.333 8.339.284 8.04.276a1.705 1.705 0 00-.334.014M2.753 2.266c-.158.072-.391.3-.472.462a.605.605 0 00-.012.525c.074.165 2.398 2.497 2.581 2.59.259.133.525.068.793-.194.264-.258.334-.538.2-.799-.093-.183-2.425-2.507-2.59-2.581a.638.638 0 00-.5-.003m10.1.016c-.123.057-.333.254-1.335 1.259-.921.923-1.202 1.221-1.247 1.319a.617.617 0 00.001.518c.07.15.3.386.455.467.157.082.39.081.553-.002.167-.086 2.477-2.396 2.563-2.563a.648.648 0 00.003-.551 1.26 1.26 0 00-.454-.446.569.569 0 00-.539-.001M.699 7.292c-.295.093-.441.328-.441.707.001.387.145.619.44.707.118.035.381.041 1.81.041 1.489 0 1.688-.005 1.81-.045a.602.602 0 00.384-.384c.086-.265.043-.641-.094-.827a.723.723 0 00-.191-.148l-.137-.076-1.733-.006c-1.395-.004-1.756.002-1.848.031m11.046-.014a.757.757 0 00-.353.214c-.137.185-.18.561-.094.826.058.18.204.326.384.384.122.04.321.045 1.81.045 1.429 0 1.692-.006 1.81-.041.295-.088.439-.32.44-.707 0-.385-.147-.616-.452-.708-.103-.031-.426-.037-1.794-.035-.918.002-1.706.012-1.751.022m-6.892 3.004c-.123.057-.333.254-1.335 1.259-.921.923-1.202 1.221-1.247 1.319a.617.617 0 00.001.518c.07.15.3.386.455.467.157.082.39.081.553-.002.167-.086 2.477-2.396 2.563-2.563a.648.648 0 00.003-.551 1.26 1.26 0 00-.454-.446.569.569 0 00-.539-.001m5.9-.016c-.158.072-.391.3-.472.462a.605.605 0 00-.012.525c.074.165 2.398 2.497 2.581 2.59.259.133.525.068.793-.194.264-.258.334-.538.2-.799-.093-.183-2.425-2.507-2.59-2.581a.638.638 0 00-.5-.003m-3.008 1.011a.768.768 0 00-.353.215c-.138.186-.139.199-.139 1.997 0 1.432.006 1.695.041 1.813.088.295.321.439.706.439.385 0 .618-.144.706-.439.062-.212.061-3.427-.002-3.612a.528.528 0 00-.284-.344c-.11-.06-.174-.075-.363-.082a1.537 1.537 0 00-.312.013" fill-rule="evenodd"/></svg><svg viewBox="0 0 24 24" id="logout" xmlns="http://www.w3.org/2000/svg"><path d="M16.555 1h-9.11A6.448 6.448 0 001 7.445v9.11A6.448 6.448 0 007.445 23h9.11A6.448 6.448 0 0023 16.555v-9.11A6.448 6.448 0 0016.555 1zm-2.26 11.456l-2.57 2.569a.645.645 0 01-1.1-.456v-1.194h-3.48a.645.645 0 01-.645-.645v-1.46c0-.356.288-.645.644-.645h3.48V9.431a.645.645 0 011.101-.456l2.57 2.57a.644.644 0 010 .91zM17.5 15.48a.645.645 0 01-.645.645h-.773a.645.645 0 01-.645-.645V8.52c0-.356.29-.645.645-.645h.773c.356 0 .645.289.645.645v6.96z"/></svg><svg viewBox="0 0 24 24" id="means" xmlns="http://www.w3.org/2000/svg"><path d="M7.455 12.91v8.18a.91.91 0 01-.91.91H2.91a.91.91 0 01-.91-.91v-8.18a.91.91 0 01.91-.91h3.635a.91.91 0 01.91.91zM13.818 2h-3.636a.91.91 0 00-.91.91v18.18a.91.91 0 00.91.91h3.636a.909.909 0 00.91-.91V2.91a.91.91 0 00-.91-.91zm7.273 4.545h-3.637a.91.91 0 00-.909.91V21.09a.909.909 0 00.91.909h3.636a.909.909 0 00.909-.91V7.456a.91.91 0 00-.91-.91z"/></svg><svg viewBox="0 0 48 48" id="notifications" xmlns="http://www.w3.org/2000/svg"><rect width="48" height="48" rx="16"/><g clip-path="url(#la)"><path d="M21.277 30.555c.742.74.255 2.01-.79 2.068a4.84 4.84 0 01-3.698-1.413 4.84 4.84 0 01-1.413-3.697c.056-1.001 1.219-1.489 1.97-.88l.099.09 3.832 3.832zm12.657-16.49a3.64 3.64 0 01.63 4.3l-.108.186-.03.043a9.715 9.715 0 01-1.752 8.653l-.222.27-.232.264-2.513 2.512-.097.136a3.638 3.638 0 00-.605 2.562l.043.243.054.225c.32 1.154-1.034 1.994-1.921 1.274l-.105-.095-13.715-13.715c-.88-.881-.02-2.358 1.18-2.026a3.637 3.637 0 003.03-.507l.141-.104 2.548-2.546a9.697 9.697 0 018.807-2.255l.337.086.045-.027a3.64 3.64 0 014.16.232l.17.142.155.147z"/></g><circle cx="32" cy="32" r="9"/><path d="M29.561 28h.8v7h-.92v-6l-1.49.44-.23-.8 1.84-.64zm1.945 7v-.76l2.47-2.52c.66-.66.99-1.227.99-1.7 0-.393-.12-.7-.36-.92-.24-.22-.534-.33-.88-.33-.66 0-1.14.313-1.44.94l-.78-.46c.22-.453.523-.797.91-1.03.393-.233.826-.35 1.3-.35.586 0 1.096.193 1.53.58.433.387.65.907.65 1.56 0 .707-.417 1.477-1.25 2.31l-1.79 1.78h3.17v.9h-4.52z"/><defs><clipPath id="la"><path transform="translate(12 12)" d="M0 0h24v24H0z"/></clipPath></defs></svg><svg viewBox="0 0 24 24" id="rub" xmlns="http://www.w3.org/2000/svg"><path d="M12 1c6.075 0 11 4.925 11 11s-4.925 11-11 11S1 18.075 1 12 5.925 1 12 1zm1.65 4.4H9.8a1.1 1.1 0 00-1.092.971L8.7 6.5v4.4h-.55a1.1 1.1 0 00-.129 2.192l.129.008h.55v1.1h-.55a1.1 1.1 0 00-.129 2.192l.129.008h.55v1.1a1.1 1.1 0 002.192.129l.008-.129v-1.1h2.2a1.1 1.1 0 00.129-2.192L13.1 14.2h-2.2v-1.1h2.75a3.85 3.85 0 00.211-7.694L13.65 5.4zm0 2.2a1.65 1.65 0 01.158 3.292l-.158.008H10.9V7.6h2.75z"/></svg><svg viewBox="0 0 24 24" id="user" xmlns="http://www.w3.org/2000/svg"><path d="M11.998 13.476c1.35 0 2.596-.38 3.593-1.026a2.024 2.024 0 012.457.204 8.99 8.99 0 012.95 6.679v1.091a2.04 2.04 0 01-2.043 2.04H5.042a2.041 2.041 0 01-2.044-2.04v-1.091a8.962 8.962 0 012.947-6.675 2.025 2.025 0 012.457-.204c1.001.641 2.244 1.022 3.596 1.022zm0-1.819a5.06 5.06 0 100-10.12 5.06 5.06 0 000 10.12z"/></svg><svg viewBox="-2.5 0 32 32" id="vk" xmlns="http://www.w3.org/2000/svg"><path d="M16.563 15.75c-.5-.188-.5-.906-.531-1.406-.125-1.781.5-4.5-.25-5.656-.531-.688-3.094-.625-4.656-.531-.438.063-.969.156-1.344.344s-.75.5-.75.781c0 .406.938.344 1.281.875.375.563.375 1.781.375 2.781 0 1.156-.188 2.688-.656 2.75-.719.031-1.125-.688-1.5-1.219a20.851 20.851 0 01-2.063-3.563c-.281-.656-.438-1.375-.844-1.656-.625-.438-1.75-.469-2.844-.438-1 .031-2.438-.094-2.719.5-.219.656.25 1.281.5 1.813 1.281 2.781 2.656 5.219 4.344 7.531 1.563 2.156 3.031 3.875 5.906 4.781.813.25 4.375.969 5.094 0 .25-.375.188-1.219.313-1.844s.281-1.25.875-1.281c.5-.031.781.406 1.094.719.344.344.625.625.875.938.594.594 1.219 1.406 1.969 1.719 1.031.438 2.625.313 4.125.25 1.219-.031 2.094-.281 2.188-1 .063-.563-.563-1.375-.938-1.844-.938-1.156-1.375-1.5-2.438-2.563-.469-.469-1.063-.969-1.063-1.531-.031-.344.25-.656.5-1 1.094-1.625 2.188-2.781 3.188-4.469.281-.5.938-1.656.688-2.219-.281-.625-1.844-.438-2.813-.438-1.25 0-2.875-.094-3.188.156-.594.406-.844 1.063-1.125 1.688-.625 1.438-1.469 2.906-2.344 4-.313.375-.906 1.156-1.25 1.031z"/></svg><svg viewBox="0 0 60 60" id="vk-task" xmlns="http://www.w3.org/2000/svg"><circle cx="30" cy="30" r="30"/><path d="M42.758 36.459c0-.103-.103-.103-.103-.206-.414-.822-1.345-1.849-2.586-2.979-.62-.514-.931-.925-1.138-1.13-.31-.411-.31-.72-.207-1.13.104-.308.517-.822 1.241-1.747.414-.514.621-.822.931-1.13 1.552-2.055 2.276-3.39 2.07-4.007l-.104-.103c-.104-.102-.207-.205-.414-.205-.207-.103-.517-.103-.827 0h-4.656l-.103.103c-.104.102-.104.102-.104.205-.413 1.13-.93 2.055-1.448 3.082-.31.514-.62 1.028-.93 1.439-.311.41-.518.719-.725.924-.207.206-.414.309-.517.514-.104.103-.31.206-.31.103-.104 0-.207 0-.207-.103l-.31-.308c-.104-.103-.104-.308-.208-.514V24.13c0-.103-.103-.308-.103-.41l-.31-.309c-.104-.103-.31-.103-.414-.206A9.335 9.335 0 0029.414 23c-1.655 0-2.793.103-3.207.308-.207.103-.414.206-.517.411-.207.206-.207.308-.104.308.517.103.931.309 1.138.617l.104.205c.103.103.103.308.206.617.104.308.104.616.104 1.027v1.644c0 .514-.104.822-.104 1.13 0 .308-.103.514-.206.617-.104.205-.104.308-.207.308 0 0 0 .102-.104.102-.103 0-.207.103-.414.103-.103 0-.31-.102-.413-.205a1.242 1.242 0 01-.518-.514c-.207-.205-.413-.514-.62-.925-.207-.41-.518-.822-.724-1.438l-.207-.41c-.104-.206-.31-.617-.518-1.131-.207-.514-.413-.925-.62-1.438a1.416 1.416 0 00-.31-.411h-.104s-.104-.103-.207-.103-.207-.103-.31-.103h-3.724c-.414 0-.621.103-.724.206l-.104.102v.206c0 .103 0 .205.104.41.517 1.234 1.137 2.467 1.758 3.7.62 1.13 1.241 2.157 1.655 2.876.518.72.931 1.438 1.448 2.055.518.616.828 1.027.931 1.233l.414.41.31.309c.208.206.518.514.932.822.413.308.93.616 1.448.925.517.308 1.138.513 1.759.719.724.205 1.344.308 1.965.205h1.552c.31 0 .517-.102.724-.308l.103-.103c0-.102.104-.102.104-.205v-.411c0-.411 0-.72.103-1.027.104-.309.104-.514.207-.72.104-.205.207-.308.31-.41l.207-.206h.104c.207-.103.517 0 .724.205.31.206.62.514.828.822.207.309.517.617.93 1.028.414.41.725.719.932.822l.31.205c.207.103.414.206.724.308.31.103.517.103.724.103l3.517-.103c.31 0 .621-.102.828-.205.207-.103.31-.206.31-.411v-.411c-.207-.206-.207-.308-.207-.411z"/></svg></svg>