<svg width="24" height="24" viewBox="0 0 24 24" fill="none" xmlns="http://www.w3.org/2000/svg">
<path d="M21.8947 18.6667V19.7778C21.8947 20.3671 21.6618 20.9324 21.2473 21.3491C20.8327 21.7659 20.2705 22 19.6842 22H4.21053C3.62426 22 3.062 21.7659 2.64745 21.3491C2.23289 20.9324 2 20.3671 2 19.7778V4.22222C2 3.63285 2.23289 3.06762 2.64745 2.65087C3.062 2.23413 3.62426 2 4.21053 2H19.6842C20.2705 2 20.8327 2.23413 21.2473 2.65087C21.6618 3.06762 21.8947 3.63285 21.8947 4.22222V5.33333H11.9474C11.3611 5.33333 10.7988 5.56746 10.3843 5.98421C9.96974 6.40095 9.73684 6.96619 9.73684 7.55556V16.4444C9.73684 17.0338 9.96974 17.599 10.3843 18.0158C10.7988 18.4325 11.3611 18.6667 11.9474 18.6667M11.9474 16.4444H23V7.55556H11.9474M16.3684 13.6667C15.9287 13.6667 15.507 13.4911 15.1961 13.1785C14.8852 12.866 14.7105 12.442 14.7105 12C14.7105 11.558 14.8852 11.134 15.1961 10.8215C15.507 10.5089 15.9287 10.3333 16.3684 10.3333C16.8081 10.3333 17.2298 10.5089 17.5407 10.8215C17.8516 11.134 18.0263 11.558 18.0263 12C18.0263 12.442 17.8516 12.866 17.5407 13.1785C17.2298 13.4911 16.8081 13.6667 16.3684 13.6667Z" fill="#B5BBDB"/>
</svg>
