<svg width="24" height="24" viewBox="0 0 24 24" fill="none" xmlns="http://www.w3.org/2000/svg">
<g id="ic ">
<g id="Layer_2_00000088855313069222395470000001121463647142642833_">
<g id="Social_Icon">
<g id="Avatar">
<path id="Vector" d="M11.9984 13.4756C13.3472 13.4756 14.5939 13.0955 15.5912 12.4497C16.3637 11.9551 17.3692 12.0368 18.0477 12.654C19.932 14.3625 21.0028 16.7863 20.9988 19.3328V20.4241C20.9988 21.5522 20.0832 22.4637 18.9551 22.4637H5.04176C3.91366 22.4637 2.99809 21.5522 2.99809 20.4241V19.3328C2.98992 16.7904 4.0608 14.3625 5.94507 12.6581C6.62357 12.0409 7.63314 11.9592 8.40156 12.4538C9.40296 13.0955 10.6455 13.4756 11.9984 13.4756Z" fill="#B5BBDB"/>
<path id="Vector_2" d="M11.9976 11.6567C14.7923 11.6567 17.0578 9.3912 17.0578 6.59657C17.0578 3.80194 14.7923 1.53644 11.9976 1.53644C9.203 1.53644 6.9375 3.80194 6.9375 6.59657C6.9375 9.3912 9.203 11.6567 11.9976 11.6567Z" fill="#B5BBDB"/>
</g>
</g>
</g>
</g>
</svg>
