<svg width="98" height="56" viewBox="0 0 98 56" fill="none" xmlns="http://www.w3.org/2000/svg">
<g id="logo" clip-path="url(#clip0_388_6940)">
<path id="Union" fill-rule="evenodd" clip-rule="evenodd" d="M97.3937 -0.238301C97.4913 -0.266148 97.589 -0.294012 97.6867 -0.322083L97.6916 -0.321339C97.6707 -0.199493 97.6574 -0.0745138 97.644 0.0503609C97.6152 0.32069 97.5864 0.590529 97.481 0.827039C96.5455 2.92313 94.6896 4.07406 92.7223 4.92892C91.1079 5.6311 89.4312 6.19211 87.7547 6.75305C87.0567 6.98657 86.3588 7.22007 85.6655 7.46374C85.4515 7.53909 85.2334 7.60205 85.0054 7.66788C84.913 7.69454 84.8191 7.72166 84.723 7.75028C84.9064 7.96889 85.0935 8.17637 85.2772 8.38004C85.6644 8.80941 86.0364 9.22187 86.3259 9.6861C88.1563 12.6187 88.3065 15.7531 87.1728 18.9263C85.5438 23.4824 82.4668 26.8576 78.1938 29.1146C77.2006 29.6395 76.031 29.9549 74.9062 30.0942C73.0169 30.3275 71.6782 29.0549 71.6015 27.1518C71.5847 26.7369 71.6076 26.3209 71.6305 25.9033C71.6406 25.7181 71.6508 25.5326 71.6575 25.3467C70.8782 25.995 70.0959 26.6454 69.3121 27.2972C68.4559 28.009 67.5979 28.7224 66.7398 29.4362C66.7404 29.4713 66.7415 29.506 66.7426 29.5408C66.7437 29.5753 66.7448 29.6099 66.7454 29.6449C67.1586 29.6014 67.5717 29.5571 67.9849 29.5128C68.9605 29.4081 69.9363 29.3034 70.9128 29.2103C71.2018 29.1825 71.515 29.2048 71.7912 29.2731C71.7334 30.5155 70.4523 31.0421 69.3594 31.4913C69.096 31.5996 68.8436 31.7033 68.6219 31.8115C67.3242 32.445 65.9445 32.9448 64.4756 32.9208C63.7356 32.9071 62.9645 32.6427 62.2757 32.3426C61.8765 32.1676 61.6692 32.2095 61.3271 32.4021C60.2025 33.0319 59.0719 33.6574 57.8962 34.1813C57.4205 34.3937 56.8151 34.4319 56.2823 34.3881C55.1406 34.2938 54.6643 33.5038 54.6526 31.9827C53.6612 34.4411 52.6697 36.8994 51.6139 39.5192C51.7648 39.4777 51.8995 39.442 52.0232 39.4092C52.2545 39.3479 52.4476 39.2967 52.6378 39.2366C61.7417 36.3543 71.0448 34.3449 80.5051 33.0191C81.3745 32.8968 82.2645 32.8797 83.1463 32.8626L83.224 32.8611C83.4914 32.8557 83.7597 32.908 84.0276 32.9602C84.1486 32.9838 84.2696 33.0074 84.3904 33.0256C84.3961 33.0772 84.4018 33.1283 84.4075 33.1795C84.4133 33.2306 84.419 33.2818 84.4247 33.3333C84.3021 33.3725 84.1802 33.4145 84.0583 33.4566C83.7937 33.5479 83.5292 33.6392 83.2574 33.7006C72.5012 36.1289 61.8833 39.0319 51.42 42.4902C50.5635 42.7731 50.0127 43.1853 49.6891 44.0257C49.4064 44.7609 49.0068 45.4602 48.5956 46.1362C48.389 46.4757 48.086 46.7989 47.751 47.011C47.1546 47.3913 46.6254 47.1219 46.614 46.4154C46.6069 45.9151 46.6638 45.4133 46.7244 44.8791C46.7516 44.6397 46.7795 44.3937 46.8027 44.1384C46.7307 44.1623 46.6565 44.1862 46.5809 44.2105C46.4215 44.2617 46.2563 44.3149 46.0941 44.3738C38.641 47.0832 31.22 49.8688 24.2127 53.6162L24.2113 53.617C23.6143 53.9356 22.8612 54.3376 22.3216 53.6715C21.7888 53.0125 22.2012 52.2503 22.688 51.7404C23.282 51.1187 23.9677 50.5224 24.7257 50.1249C31.9581 46.3284 39.6223 43.5628 47.3542 40.972C48.0157 40.7495 48.3835 40.4077 48.6429 39.7604C50.8984 34.1203 53.1872 28.4919 55.4791 22.8656C55.7991 22.0828 56.181 21.3227 56.5641 20.566C56.6972 20.3036 56.8775 20.0283 57.1103 19.8606C57.33 19.7026 57.7162 19.5399 57.9 19.6325C58.0884 19.7274 58.2292 20.1409 58.2043 20.3965C58.1408 21.0631 58.0357 21.726 57.9283 22.4032C57.8875 22.6599 57.8465 22.9187 57.8073 23.1806C58.0175 22.9808 58.228 22.7778 58.4396 22.5737C58.9632 22.0688 59.494 21.5569 60.0467 21.0686C60.4539 20.7096 60.9113 20.3847 61.3959 20.147C61.6148 20.0388 62.0509 20.0797 62.2219 20.2352C62.3901 20.3869 62.4627 20.8084 62.3808 21.0421C62.1826 21.6025 61.92 22.1415 61.6578 22.6796C61.6085 22.7809 61.5592 22.8821 61.5103 22.9834C61.1461 23.7378 60.7786 24.4908 60.411 25.2438C59.6168 26.8711 58.8224 28.4986 58.0611 30.1404C57.6805 30.9589 58.0452 31.3647 58.9281 31.1623C59.4879 31.0344 60.0296 30.8217 60.5681 30.6102C60.6704 30.5701 60.7726 30.5299 60.8748 30.4904C60.9975 30.4425 61.1435 30.2734 61.1557 30.1472C61.4595 27.1579 63.1606 24.8599 64.9841 22.6619C66.5461 20.7784 68.4725 19.3024 70.8676 18.5886C71.6355 18.3604 72.4985 18.2913 73.2976 18.3687C73.6224 18.3993 73.927 18.6394 74.2242 18.8736C74.3549 18.9765 74.484 19.0783 74.6129 19.1607C74.8626 18.9053 75.1138 18.6393 75.3691 18.3691C75.9997 17.7016 76.6547 17.0083 77.3707 16.384C77.9756 15.857 78.7282 15.4404 79.4849 15.1524C80.533 14.7538 81.2482 15.2907 81.2228 16.4105C81.2004 17.3762 81.0371 18.3322 80.016 19.1771C79.9945 18.9836 79.9808 18.8162 79.9686 18.6672C79.9448 18.376 79.9267 18.1547 79.8673 17.9445C79.7987 17.6981 79.6591 17.4111 79.4589 17.2828C79.346 17.2092 78.9926 17.3653 78.843 17.5139C76.8691 19.4632 75.4293 21.7391 74.8612 24.4691C74.4794 26.3014 75.498 27.1617 77.2968 26.5822C79.1045 25.9991 80.5603 24.8576 81.7624 23.4417C83.701 21.158 84.9621 18.5991 84.5617 15.4802C84.1549 12.3137 82.3692 10.1342 79.3333 9.39986C78.4712 9.19228 77.5597 9.17784 76.651 9.16343C76.3106 9.15804 75.9707 9.15265 75.6338 9.13712C74.8185 9.10045 73.8874 8.07056 73.9007 7.16501C73.9153 6.1732 74.7917 5.16524 75.6909 5.26778C79.861 5.7426 83.7724 4.57529 87.6505 3.4179C87.7685 3.38268 87.8865 3.34746 88.0045 3.3123C89.9726 2.72614 91.88 1.94281 93.7871 1.15958C94.6289 0.813846 95.4707 0.468133 96.3177 0.139411C96.354 0.12516 96.3865 0.101326 96.4187 0.0777092C96.4543 0.051609 96.4895 0.0257751 96.5292 0.0134387C96.8164 -0.0736384 97.1048 -0.155899 97.3937 -0.238301ZM56.0437 28.2977C56.0007 28.4839 55.9579 28.669 55.906 28.8492L55.9092 28.8435C56.3834 27.9763 56.8578 27.1089 57.4166 26.0903C56.4268 26.6408 56.2327 27.4802 56.0437 28.2977ZM68.8678 25.6419C70.1893 24.5698 71.3429 23.3212 72.0721 21.7524C72.4254 20.993 72.1944 20.6007 71.3643 20.7629C70.5498 20.9225 69.7006 21.2015 69.0136 21.6497C66.8821 23.0416 65.5246 25.0806 64.5747 27.3956C64.4737 27.6419 64.4494 27.92 64.4251 28.1981C64.4138 28.3265 64.4026 28.4549 64.3839 28.5802C64.4245 28.6171 64.4646 28.6544 64.5047 28.6916C64.5447 28.7288 64.5847 28.766 64.6252 28.8028C65.0541 28.4856 65.4865 28.1728 65.9188 27.8599C66.9164 27.1381 67.9138 26.4163 68.8678 25.6419ZM27.8935 43.7146C26.1468 44.1473 24.951 43.3517 24.6835 41.571L24.6849 41.5729C24.6065 41.0527 24.6099 40.5211 24.6134 39.9681C24.6151 39.7092 24.6167 39.4456 24.6101 39.1763C24.3924 39.4847 24.1776 39.7909 23.9642 40.0951C23.4976 40.7601 23.0377 41.4157 22.5692 42.0646C19.7801 45.9336 16.656 49.4894 12.6943 52.229C10.5564 53.708 8.29702 54.9692 5.62835 55.2278C2.96836 55.4844 1.09436 54.1509 0.3938 51.5817C-0.140217 49.6228 0.0514265 47.6504 0.38527 45.7128C1.32838 40.2452 3.23621 35.1028 5.85851 30.2229C6.83786 28.4044 8.01342 26.7185 9.5881 25.3539C10.0542 24.9489 10.6366 24.6612 11.1984 24.3887C11.3664 24.3076 11.7397 24.3873 11.8513 24.5255C11.9671 24.6693 11.9199 24.9846 11.8636 25.2038C11.8195 25.3751 11.6829 25.5605 11.5322 25.6608C9.97911 26.6922 9.17273 28.2891 8.38108 29.8568C8.35157 29.9152 8.32209 29.9736 8.29258 30.0319C5.79123 34.9767 4.05586 40.1867 3.36337 45.6921C3.20065 46.9906 3.32875 48.383 3.61532 49.6679C3.98162 51.304 5.20758 52.021 6.8972 51.9354C8.51582 51.854 9.95827 51.249 11.2997 50.4127C15.2015 47.9833 18.1317 44.5926 20.7442 40.8964C20.7716 40.859 20.7546 40.7932 20.7518 40.8344C20.5016 40.7392 20.2474 40.6564 19.9953 40.5743C19.4521 40.3974 18.9189 40.2237 18.4575 39.9361C16.5793 38.7648 16.1851 36.8453 16.1703 34.8418C16.1383 30.6614 17.725 26.9915 19.9647 23.5697C21.6179 21.0435 23.6527 18.8441 26.3066 17.3316C27.3891 16.7138 28.5938 16.2308 29.8053 15.9267C31.9131 15.3973 32.9438 15.9535 33.8923 17.8404C34.0416 17.6496 34.1898 17.4585 34.3378 17.2677C34.6741 16.8339 35.0095 16.4014 35.3558 15.9769C35.5447 15.7445 35.7518 15.4915 36.0095 15.3592C36.2298 15.2456 36.4812 15.1889 36.7322 15.1324C36.839 15.1084 36.9457 15.0843 37.0499 15.0559C37.0361 15.1657 37.0309 15.2796 37.0257 15.3935C37.0144 15.6402 37.0031 15.8871 36.9046 16.0928C34.0853 21.9636 31.2896 27.8446 29.141 34.0011C28.7483 35.1264 28.4885 36.2987 28.2295 37.4676C28.1807 37.688 28.1318 37.9083 28.0822 38.1281C27.9882 38.5428 28.0301 39.0012 28.0794 39.4325C28.1705 40.2109 28.6589 40.6404 29.4343 40.563C30.048 40.5017 30.6566 40.3849 31.3137 40.2587C31.6145 40.201 31.9254 40.1413 32.2516 40.0841C30.4356 38.3521 30.6486 36.4495 31.2789 34.4902C32.1247 31.8636 33.5406 29.6023 35.8506 28.0363C36.6804 27.4734 37.7164 27.0879 38.7109 26.9123C39.7177 26.7335 40.3653 27.699 39.9011 28.4717C39.7966 28.6437 39.438 28.8239 39.2666 28.7715C38.4247 28.5097 37.7461 28.8128 37.1038 29.276C35.6295 30.3399 34.849 31.871 34.3167 33.5343C34.1051 34.1972 33.9869 34.919 33.9951 35.6134C34.0074 36.6275 34.6972 37.2669 35.7137 37.3921C35.7747 37.4001 35.8357 37.4026 35.8971 37.4051C35.9183 37.4059 35.9396 37.4068 35.9609 37.4079C38.516 37.5161 38.7256 37.2236 39.4849 34.7385C40.0807 32.7883 40.8332 30.8845 41.585 28.982C41.8078 28.4184 42.0305 27.8549 42.2491 27.2903C42.4019 26.8962 42.7094 26.5437 43.0102 26.235C43.1488 26.0931 43.4978 25.9995 43.6554 26.0765C43.7988 26.148 43.9144 26.5062 43.8662 26.6934C43.6941 27.3552 43.4959 28.0109 43.2977 28.6668C43.1955 29.0048 43.0933 29.3428 42.9947 29.6818C42.7068 30.6756 42.4298 31.6743 42.2782 32.7202C42.4652 32.2803 42.652 31.8404 42.8388 31.4005C43.422 30.0269 44.0052 28.6536 44.5938 27.282C44.8533 26.6796 45.1239 26.0805 45.4116 25.4906C45.432 25.4487 45.4522 25.4052 45.4727 25.3611C45.584 25.1219 45.7035 24.8649 45.8975 24.7412C45.9846 24.6851 46.076 24.623 46.1698 24.5592C46.6167 24.2556 47.1193 23.9139 47.492 24.0046C48.1934 24.1753 48.0185 25.0182 47.8715 25.5745C47.4187 27.2876 46.9318 28.9919 46.445 30.696C46.2791 31.2767 46.1132 31.8574 45.9487 32.4383C45.9455 32.4495 45.9423 32.4607 45.9391 32.4719C45.8712 32.7093 45.803 32.9477 45.8819 33.2643C46.014 33.0812 46.1488 32.8999 46.2838 32.7185C46.5829 32.3163 46.8821 31.914 47.1507 31.4928C47.5847 30.8134 48.0098 30.1284 48.4349 29.4434C49.0342 28.4775 49.6336 27.5116 50.2581 26.5615C50.6269 26.0005 51.0847 25.4496 51.6237 25.0606C51.96 24.8172 52.6096 24.7075 52.9565 24.8746C53.1973 24.989 53.3009 25.7061 53.2181 26.1025C53.0445 26.9257 52.7742 27.7459 52.4248 28.5127C51.6736 30.1612 50.9087 31.801 50.1372 33.4398C49.7891 34.1791 49.4386 34.9168 49.0877 35.6554L48.9516 35.9419C48.8869 36.0779 48.8251 36.2214 48.7623 36.3673C48.5329 36.9004 48.2895 37.4659 47.8398 37.8169C47.7619 37.8783 47.6728 37.9363 47.5719 37.9394C47.1805 37.9523 47.2197 35.7906 47.2374 34.8132C47.2409 34.6175 47.2436 34.4693 47.2418 34.3955C47.1922 34.4556 47.1398 34.5212 47.0846 34.5901C46.9552 34.7518 46.811 34.9321 46.655 35.1031C46.4484 35.3291 46.2477 35.5624 46.047 35.7957C45.5663 36.3544 45.0853 36.9135 44.5226 37.3726C43.1465 38.4962 42.3859 38.1619 42.1658 36.3551C42.071 36.5429 41.9872 36.7275 41.9061 36.9062C41.7323 37.2891 41.5707 37.6452 41.339 37.949C40.8691 38.5695 40.3531 39.1964 39.7308 39.6493C39.0899 40.1144 38.6769 39.8742 38.3832 39.017C38.2934 39.0642 38.2045 39.1113 38.1161 39.158C37.8661 39.2901 37.6204 39.42 37.3726 39.5459C36.1794 40.1536 34.9345 40.5241 33.5643 40.4685C33.2346 40.4553 32.8588 40.6828 32.5683 40.8883C32.187 41.1587 31.8161 41.4442 31.4454 41.7296C30.9033 42.1469 30.3615 42.564 29.7878 42.9335C29.2222 43.2985 28.5528 43.5515 27.8935 43.7146ZM22.3892 38.5292C22.5145 38.3563 22.6308 38.1959 22.724 38.0238L22.7221 38.0252C23.2103 37.127 23.7066 36.2325 24.2028 35.338C25.4438 33.1011 26.685 30.8638 27.8011 28.5661C28.6491 26.821 29.3225 24.9905 29.9954 23.1614C30.2199 22.5511 30.4444 21.9408 30.6753 21.334C30.9383 20.6406 31.1376 19.8579 30.5229 19.2432C29.9197 18.6401 29.1119 18.7658 28.4195 19.0269C27.5531 19.3532 26.6384 19.7005 25.9321 20.267C21.7265 23.6396 19.4096 28.0238 19.277 33.4259C19.2207 35.6581 20.2082 37.486 22.1997 38.7957C22.2639 38.702 22.3276 38.6141 22.3892 38.5292Z" fill="url(#paint0_linear_388_6940)"/>
</g>
<defs>
<linearGradient id="paint0_linear_388_6940" x1="73.5" y1="59.9999" x2="58.5001" y2="7.99993" gradientUnits="userSpaceOnUse">
<stop stop-color="#B2967D"/>
<stop offset="1" stop-color="#E6BEAE"/>
</linearGradient>
<clipPath id="clip0_388_6940">
<rect width="98" height="56" fill="white"/>
</clipPath>
</defs>
</svg>
